<?xml version="1.0" standalone="no"?><!DOCTYPE svg PUBLIC "-//W3C//DTD SVG 1.1//EN" "http://www.w3.org/Graphics/SVG/1.1/DTD/svg11.dtd">
<svg t="1730387589259" class="icon" viewBox="0 0 1024 1024" version="1.1" xmlns="http://www.w3.org/2000/svg"
     p-id="11721"
     width="32" height="32"><path d="M1024.3 769.8v-704H0.3v704h448v140.8h-256v64h640v-64h-256V769.8h448z m-960-64v-576h896v576h-896z" fill="#1296db" p-id="11722"></path><path d="M405.8 304l185.7 113.5-185.6 113.6-0.1-227.1M373 214.2c-10.8 0-21.3 5.6-27 15.6-2.9 5.1-4.4 11-4.1 16.9v341.5c-0.8 17.1 12.3 31.7 29.5 32.5h1.5c5.4 0 10.8-1.4 15.5-4.2L667.7 446c15.7-10.1 20.3-31.1 10.2-46.8-2.6-4.1-6.1-7.5-10.2-10.1L388.4 218.3c-4.9-2.8-10.2-4.1-15.4-4.1z" fill="#1296db" p-id="11723"></path></svg>